<svg width="15" height="15" viewBox="0 0 20 20" fill="none" xmlns="http://www.w3.org/2000/svg"><path d="M3.71761 14.4106H2.5L6.0217 4.58334H7.22057L10.7423 14.4106H9.52466L6.6586 6.13805H6.58367L3.71761 14.4106ZM4.16719 10.5718H9.07509V11.6275H4.16719V10.5718Z" fill="green"></path><path d="M14.2031 14.5833C13.7473 14.5833 13.3336 14.4954 12.9621 14.3194C12.5905 14.1403 12.2955 13.8828 12.077 13.5469C11.8584 13.2078 11.7491 12.7983 11.7491 12.3185C11.7491 11.8962 11.8303 11.5539 11.9927 11.2916C12.155 11.0261 12.372 10.8181 12.6436 10.6678C12.9152 10.5174 13.215 10.4055 13.5428 10.3319C13.8737 10.2551 14.2062 10.1943 14.5403 10.1496C14.9774 10.092 15.3317 10.0488 15.6033 10.02C15.8781 9.98801 16.0779 9.93523 16.2028 9.86165C16.3308 9.78808 16.3948 9.66012 16.3948 9.47778V9.43939C16.3948 8.96594 16.2683 8.59806 16.0155 8.33574C15.7657 8.07343 15.3864 7.94227 14.8775 7.94227C14.3498 7.94227 13.9362 8.06063 13.6364 8.29735C13.3367 8.53408 13.126 8.7868 13.0042 9.05551L11.9552 8.67164C12.1425 8.22378 12.3923 7.87509 12.7045 7.62557C13.0198 7.37285 13.3633 7.19691 13.7348 7.09774C14.1094 6.99537 14.4778 6.94419 14.84 6.94419C15.071 6.94419 15.3364 6.97298 15.6361 7.03056C15.939 7.08494 16.2309 7.19851 16.5119 7.37125C16.796 7.544 17.0317 7.80471 17.219 8.1534C17.4063 8.50209 17.5 8.96914 17.5 9.55455V14.4106H16.3948V13.4125H16.3386C16.2637 13.5725 16.1388 13.7436 15.9639 13.926C15.7891 14.1083 15.5565 14.2634 15.2662 14.3914C14.9758 14.5194 14.6214 14.5833 14.2031 14.5833ZM14.3717 13.5661C14.8088 13.5661 15.1772 13.4781 15.4769 13.3022C15.7797 13.1262 16.0076 12.8991 16.1606 12.6208C16.3167 12.3425 16.3948 12.0498 16.3948 11.7427V10.7062C16.348 10.7638 16.2449 10.8165 16.0857 10.8645C15.9296 10.9093 15.7485 10.9493 15.5425 10.9845C15.3395 11.0165 15.1413 11.0453 14.9477 11.0709C14.7573 11.0933 14.6027 11.1125 14.4841 11.1284C14.1968 11.1668 13.9283 11.2292 13.6786 11.3156C13.4319 11.3988 13.2321 11.5251 13.0791 11.6947C12.9293 11.861 12.8544 12.0881 12.8544 12.376C12.8544 12.7695 12.9964 13.067 13.2805 13.2686C13.5677 13.4669 13.9315 13.5661 14.3717 13.5661Z" fill="green"></path></svg>